<svg id="レイヤー_1" data-name="レイヤー 1" xmlns="http://www.w3.org/2000/svg" viewBox="0 0 1274.96972 487.27785"><defs><style>.cls-1{fill:#ffffff;}</style></defs><title>combo</title><path class="cls-1" d="M459.83328,176.4459c-2.11833-3.63164-5.75-5.14494-9.68486-5.14494a15.90927,15.90927,0,0,0-6.96148,1.8151c-12.10643,6.65969-23.90819,10.59313-38.133,10.59313-43.28079,0-73.24219-30.26465-73.24219-74.45226,0-46.00272,29.65961-74.45226,69.00551-74.45226,13.9201,0,25.72473,4.23668,37.52793,10.28989a13.78778,13.78778,0,0,0,6.65825,1.81654c3.63164,0,6.65825-1.81654,9.07982-5.75l6.355-11.19816a12.55769,12.55769,0,0,0,1.81654-6.05322c0-3.93488-2.42158-6.96148-6.05322-8.77659-15.73807-8.778-36.62109-15.133-55.38434-15.133-69.91378,0-108.35142,48.4243-108.35142,109.25682,0,65.9789,44.49085,109.25825,109.25825,109.25825,19.06648,0,39.04267-3.32985,61.439-18.15965a10.19635,10.19635,0,0,0,4.23667-8.47479,11.78473,11.78473,0,0,0-2.11833-6.96Z"/><path class="cls-1" d="M553.47274,75.66244c-45.09445,0-74.15046,30.56788-74.15046,71.42565,0,40.85921,29.056,71.42709,74.15046,71.42709s74.15046-30.56788,74.15046-71.42709C627.6232,106.23032,598.56719,75.66244,553.47274,75.66244Zm0,110.46832c-21.18625,0-36.92289-16.34311-36.92289-39.04267,0-23.60639,16.34311-38.73943,36.92289-38.73943,21.18626,0,37.22613,15.73807,37.22613,38.73943C590.69887,170.69592,574.9608,186.13076,553.47274,186.13076Z"/><path class="cls-1" d="M895.5858,75.66244c-44.79121,0-72.02925,31.77939-72.02925,71.42565,0,42.97755,29.35637,71.42709,73.24075,71.42709a85.788,85.788,0,0,0,45.69949-12.71147,10.67437,10.67437,0,0,0,4.84314-9.07982,10.90539,10.90539,0,0,0-1.81654-6.05322l-2.72193-3.93488c-2.423-3.3284-5.44962-5.14494-8.778-5.14494a16.63463,16.63463,0,0,0-6.96148,2.11834c-7.56509,3.63164-15.43484,5.75141-26.633,5.75141-21.48806,0-37.83117-11.19816-40.85777-31.77938h88.37523c5.44674,0,11.5-5.75,11.80175-10.89493a63.21928,63.21928,0,0,0,.30324-7.86975C960.0514,100.78357,930.695,75.66244,895.5858,75.66244Zm29.66105,58.71418H858.36111c3.63164-17.85641,14.8298-29.6596,35.71282-29.6596,19.67152,0,31.17292,12.71146,31.17292,29.05457Z"/><path class="cls-1" d="M1051.7536,75.66244c-44.79265,0-72.03068,31.77939-72.03068,71.42565,0,42.97755,29.35637,71.42709,73.24075,71.42709a85.79279,85.79279,0,0,0,45.70092-12.71147,10.67435,10.67435,0,0,0,4.84315-9.07982,10.917,10.917,0,0,0-1.81654-6.05322l-2.72338-3.93488c-2.42157-3.3284-5.44818-5.14494-8.77659-5.14494a16.62861,16.62861,0,0,0-6.96148,2.11834c-7.56652,3.63164-15.43484,5.75141-26.633,5.75141-21.48806,0-37.83117-11.19816-40.85777-31.77938h88.37379c5.44818,0,11.5014-5.75,11.8032-10.89493a63.521,63.521,0,0,0,.30179-7.86975C1116.21776,100.78357,1086.86139,75.66244,1051.7536,75.66244Zm29.65961,58.71418h-66.88574c3.63164-17.85641,14.82981-29.6596,35.71283-29.6596,19.673,0,31.17291,12.71146,31.17291,29.05457Z"/><path class="cls-1" d="M579.38,283.28929c0-7.26329-4.84315-11.19816-12.10643-11.19816h-8.47479a14.98311,14.98311,0,0,0-14.22334,10.59312l-39.3459,140.733-45.09445-140.733a14.98681,14.98681,0,0,0-14.528-10.59312H431.08051a15.36541,15.36541,0,0,0-14.528,10.59312L372.66956,423.11542l-39.6477-140.43117a14.98757,14.98757,0,0,0-14.22478-10.59312h-14.528c-7.26329,0-11.8032,5.75141-11.8032,12.40966a20.39247,20.39247,0,0,0,.605,4.23668l55.08254,184.61734a15.66123,15.66123,0,0,0,14.528,10.59313h12.71147a14.98333,14.98333,0,0,0,14.52657-10.59313l46.911-142.54806,47.516,142.54806a15.63993,15.63993,0,0,0,14.83124,10.59313H511.586a14.98621,14.98621,0,0,0,14.22477-10.59313l52.661-184.61734A20.361,20.361,0,0,0,579.38,283.28929Z"/><path class="cls-1" d="M623.9745,344.42505A95.00832,95.00832,0,0,0,584.63,353.50487a11.44011,11.44011,0,0,0-6.35645,9.68486,12.66926,12.66926,0,0,0,1.2115,4.84315l1.8151,3.63164a10.91193,10.91193,0,0,0,10.2899,6.355,17.10177,17.10177,0,0,0,5.44818-.90827,68.349,68.349,0,0,1,23.30459-3.63164c17.72384,0,24.45538,9.42761,25.31731,26.79827.065,1.31642.10563,2.66589.10563,4.07285v40.25273h-.44372c-4.315,5.8628-11.84236,11.8032-25.88749,11.8032-10.81376,0-19.24331-5.66463-19.36823-15.81071a17.0518,17.0518,0,0,1,15.947-16.95333c8.865-.65588,16.23915.11059,22.32752,2.41854a2.37622,2.37622,0,0,0,3.18683-2.24905V408.96741a4.64544,4.64544,0,0,0-2.76236-4.27349,61.83779,61.83779,0,0,0-23.87067-4.8831c-27.54127,0-49.63436,14.22477-49.63436,44.18762,0,26.32976,17.85641,41.766,42.67431,41.766,18.46145,0,32.988-7.26472,40.2513-17.55461v4.53991a11.23109,11.23109,0,0,0,11.19816,11.19816h7.86976A11.23108,11.23108,0,0,0,678.452,472.74978V401.02089C678.452,365.00627,664.22723,344.42505,623.9745,344.42505Z"/><path class="cls-1" d="M768.94557,457.92c-2.42157-4.53991-5.14494-6.05321-8.47479-6.05321-2.72337,0-5.75.90827-9.38162,1.81654a26.57111,26.57111,0,0,1-4.84315.605c-7.86832,0-11.8032-6.65825-11.8032-22.09452V283.28929a11.37074,11.37074,0,0,0-11.19816-11.19816H710.83642a11.37075,11.37075,0,0,0-11.19816,11.19816V446.41858c0,27.8445,11.5014,40.556,33.29125,40.556,10.89636,0,23.00136-1.81654,33.29269-7.56652,4.84171-3.02661,7.26328-6.65825,7.26328-10.59313a8.53959,8.53959,0,0,0-1.2115-4.53991Z"/><path class="cls-1" d="M866.09308,410.10072,903.016,365.00627a10.0817,10.0817,0,0,0,2.42158-6.65825,10.4575,10.4575,0,0,0-10.2899-10.59313H882.43619a19.45352,19.45352,0,0,0-14.528,7.26328L831.28852,404.0475a14.24063,14.24063,0,0,0,0,17.55461l41.76461,55.08255a18.49824,18.49824,0,0,0,14.528,7.26328h13.61974A10.84711,10.84711,0,0,0,912.0958,473.053a11.99438,11.99438,0,0,0-2.42158-6.65825Z"/><rect class="cls-1" x="789.21925" y="272.09113" width="34.80456" height="211.85681" rx="11.19816"/><path class="cls-1" d="M986.84842,344.42505c-44.79265,0-72.03213,31.77938-72.03213,71.42565,0,42.97754,29.35782,71.42708,73.24219,71.42708a85.79631,85.79631,0,0,0,45.70092-12.71146,10.67309,10.67309,0,0,0,4.84171-9.07983,10.91544,10.91544,0,0,0-1.8151-6.05321l-2.72481-3.93488c-2.42013-3.32841-5.44674-5.14495-8.77659-5.14495a16.63463,16.63463,0,0,0-6.96148,2.11834c-7.56509,3.63164-15.43484,5.75142-26.633,5.75142-21.48806,0-37.83117-11.19816-40.85777-31.77939h88.37379c5.44818,0,11.5014-5.75,11.80463-10.89492a63.51909,63.51909,0,0,0,.3018-7.86976C1051.31258,369.54618,1021.95621,344.42505,986.84842,344.42505Zm29.65961,58.71418H949.62229c3.63164-17.85641,14.8298-29.65961,35.71282-29.65961,19.67152,0,31.17292,12.71147,31.17292,29.05458Z"/><path class="cls-1" d="M1149.67447,347.45165a31.36591,31.36591,0,0,0-11.80464-2.11833c-16.3431,0-24.81646,6.96148-31.17291,14.528,0-6.96148-5.145-12.10643-11.19816-12.10643h-12.40823a11.37075,11.37075,0,0,0-11.19816,11.19816V472.74978a11.37075,11.37075,0,0,0,11.19816,11.19816h12.40823a11.37075,11.37075,0,0,0,11.19816-11.19816V392.54754c3.93488-7.86976,10.28989-14.528,21.79129-14.528a30.55885,30.55885,0,0,1,5.75.605,18.58757,18.58757,0,0,0,3.93488.30323c5.75,0,9.68486-2.72337,12.40823-8.77659l4.53991-9.68485a9.6777,9.6777,0,0,0,.90827-4.23812C1156.02948,352.5966,1154.21294,349.26819,1149.67447,347.45165Z"/><path class="cls-1" d="M1201.42573,385.28282c0-6.05178,6.355-11.8032,16.94814-11.8032a56.1862,56.1862,0,0,1,26.93624,6.35645c2.72337,1.21007,5.14494,2.11834,7.56652,2.11834,3.3284,0,6.05178-1.5133,8.47335-4.84315l3.32984-4.84171a10.91888,10.91888,0,0,0,1.81511-6.05321,11.174,11.174,0,0,0-4.53991-9.07983c-10.89493-6.96-25.42294-12.71146-45.39769-12.71146-28.1463,0-49.93759,14.8298-49.93759,41.46424,0,49.63436,73.54542,37.52793,73.54542,59.62245,0,8.47336-7.86975,12.71147-17.85641,12.71147a59.42858,59.42858,0,0,1-33.59449-9.98809,16.00124,16.00124,0,0,0-9.07982-3.32985c-2.72337,0-5.145,1.21151-7.26329,3.93488l-4.53991,5.75a10.05619,10.05619,0,0,0-2.11834,6.35645,9.70715,9.70715,0,0,0,3.32841,7.56652c14.22477,12.40823,29.65961,18.76468,50.84587,18.76468,33.29125,0,55.08254-16.64634,55.08254-43.58258C1274.96972,395.57415,1201.42573,407.98238,1201.42573,385.28282Z"/><path class="cls-1" d="M820.92364,6.96021c-9.68486-5.14495-18.46145-6.96-29.96285-6.96-30.26464,0-48.42429,19.06648-48.42429,56.89764V78.99233H683.006V59.62261c0-18.76468,8.173-26.93623,19.97475-26.93623a35.59727,35.59727,0,0,1,8.17155.90827,26.96738,26.96738,0,0,0,4.54135.605c5.44674,0,9.68342-2.72337,12.40823-7.56652l2.72337-4.84171a10.20175,10.20175,0,0,0,1.51331-5.145,10.8486,10.8486,0,0,0-5.75-9.68629c-9.68486-5.14495-18.46289-6.96-29.96285-6.96-30.26608,0-48.42429,19.06648-48.42429,56.89764V203.98722a11.40932,11.40932,0,0,0,9.00509,10.9693l.0115.00179a10.68137,10.68137,0,0,0,2.18157.22707h38.22278a4.96466,4.96466,0,0,0,4.77054-6.32525A23.05343,23.05343,0,0,0,683.006,192.33384V111.67855H742.5365v92.30867c0,.318.02228.632.0503.94456a11.43941,11.43941,0,0,0,9.0051,10.03264l.01077.0018a10.69782,10.69782,0,0,0,2.132.21916h38.27244a4.965,4.965,0,0,0,4.77-6.32709,23.05332,23.05332,0,0,0-19.43607-16.532V111.67855h25.72473A11.23108,11.23108,0,0,0,814.264,100.48039V90.19049a11.23108,11.23108,0,0,0-11.19816-11.19816H777.34106V59.62261c0-18.76468,8.17155-26.93623,19.97619-26.93623a35.60633,35.60633,0,0,1,8.17155.90827,26.9179,26.9179,0,0,0,4.53848.605c5.44818,0,9.68629-2.72337,12.40823-7.56652l2.72481-4.84171a10.20174,10.20174,0,0,0,1.5133-5.145A10.8486,10.8486,0,0,0,820.92364,6.96021Z"/><path class="cls-1" d="M66.12722,468.652a37.33145,37.33145,0,0,1-7.49995,1.0715c-3.094.16942-6.7545-1.75584-9.32521-3.485-5.6569-3.80274-10.77721-8.54034-10.35395-15.93586a3.27823,3.27823,0,0,0-2.07745-3.48334c-2.10079-.86654-.07-4.90591.14109-6.3479-1.34535.7321-1.14871,2.714-2.34408,3.62-.31218.23607-.69212.3705-1.00318.60713a3.82918,3.82918,0,0,0-.401.35661,18.24375,18.24375,0,0,1-1.78083,1.983c-1.18759.90764-2.50406,3.56167-3.70609,4.44875-2.63959,1.91137-10.725-.71322-11.3849-3.921-.36327-1.82028.26663-4.521-1.87193-5.02144.66323-1.71029,1.65863-6.55676,1.10094-7.33-.67767,1.91859-2.13855,6.80394-4.95367,6.329-4.09381-.69045-8.11207,17.26676-9.26412,20.5307a17.539,17.539,0,0,0-1.39422,6.49454c.15886,3.61388,3.02953,5.96407,6.29013,6.94336.93319.29607,1.86526.61435,2.79845.91042,2.88955.97818,2.79068-1.647,4.45264-4.241,1.65975-2.61626,3.935-2.168,6.82561-2.07745,3.73053.13664,3.52834,3.66,5.89908,6.45677,1.04539,1.23314,2.32853,2.68792,7.0789,4.4132,7.49883,2.72291,15.55091,3.58944,23.52634,3.7472a24.6154,24.6154,0,0,0,13.94227-4.146C78.42419,475.0754,75.6624,465.98625,66.12722,468.652Z"/><path class="cls-1" d="M267.20148,444.07689a7.81283,7.81283,0,0,0-1.41644-2.57683,4.25142,4.25142,0,0,0-.411-.39493,6.43307,6.43307,0,0,0-2.94954-1.2137c-4.14824-.80321-8.58311,6.42677-12.207,8.59866-5.13476,3.0773-8.572.936-14.82991,1.94136a8.94585,8.94585,0,0,1-3.02064.06166,9.8228,9.8228,0,0,1-1.26647-.34217,31.3897,31.3897,0,0,1-7.32886-3.50279c-2.01858-1.30924-4.21046-1.327-6.279-2.49017-2.07079-1.167-3.47946-3.54667-4.90146-5.42082-.43882-.5788-.22552,2.25909.90764,3.77941a8.71322,8.71322,0,0,1,1.85749,6.70563c-.74544,3.80829-6.69563,8.08929-10.53725,8.63532-4.25712.606-5.74244-2.13411-9.69071-1.95525a4.056,4.056,0,0,1-2.81512-.5077c-1.06984-.88153-1.73084-2.498-2.59515-3.59389a28.92653,28.92653,0,0,0-3.5339-3.74c-.13442-.11887.05888,1.016.09776,1.10705.23108.53881.60213,1.05872.87542,1.582.581,1.11371,1.12538,2.24687,1.60309,3.40947.901,2.19688.65878,3.70553-.06444,5.87575a8.37675,8.37675,0,0,0,.32,4.79147c.97985,3.59222,2.06746,7.15556,3.30282,10.66834,1.45644,4.13992,3.40836,8.54034,7.30331,10.56336,3.1384,1.63086,6.90893,1.35868,10.38838.721a17.35807,17.35807,0,0,0,7.13-2.61348c2.06967-1.4931-.15-7.15556,1.33979-8.60866.54547-.53214,5.84909-3.95661,6.60786-4.02826,4.40265-.41661,6.01684,2.06967,10.405,1.52976a15.6045,15.6045,0,0,0,5.03143-1.84305q10.29341-5.21085,20.28018-11.00218c2.36186-1.36978,4.16158-4.14546,5.57247-6.48232A10.1421,10.1421,0,0,0,267.20148,444.07689Z"/><path class="cls-1" d="M209.75491,428.04329c-1.23863-4.40766-1.91415-9.28969-3.90723-13.3768-2.41068-4.94425-4.898-9.82737-6.85-14.97991-3.0151-7.95657-4.86924-16.29417-7.1077-24.50286-6.96117-25.52714-18.05954-49.68227-24.49952-75.37054-4.39163-17.49611-11.21716-34.08242-18.15613-50.60042-2.15685-5.13433-4.15506-10.33851-5.80875-15.6584-.83422-2.68368-1.58171-5.39473-2.22061-8.13166-.27843-1.19278-.41609-2.41818-.70563-3.60039-.3059-1.249-.96572-2.45193-.81311-3.77542a7.07125,7.07125,0,0,1,.50463-1.68939,25.7721,25.7721,0,0,1,1.05547-2.58051c.30792-.60071.67918-1.16626,1.02664-1.745,2.99369-4.98654,4.81275-11.03224,6.08927-16.6703a104.32368,104.32368,0,0,0,2.33525-18.55729,1.89749,1.89749,0,0,1,.65374-1.38724c6.15021-3.534,12.57006-5.545,19.74907-3.53859,2.70456.75583,5.49647,1.19481,8.23412,1.83973a2.648,2.648,0,0,1,1.33358.82666c1.65007,1.9763,3.91114,2.57308,6.37114,2.89055,3.94258.50878,9.43576,1.30864,12.87236-.99248a8.04088,8.04088,0,0,0,2.47624-3.6725c.56516-1.33263.86768-2.77509,1.40736-4.12046a6.31256,6.31256,0,0,1,1.31529-2.13667c1.2152-1.19586,1.67966-2.52176,1.37386-3.38207.51584-1.8386,1.4275-3.29863,1.1145-4.41541-.411-1.466.29224-2.44942.49611-3.64446a21.70476,21.70476,0,0,1,.507-3.15017c.46241-1.40127.57811-2.62983-.56989-3.75255a1.50257,1.50257,0,0,1-.51481-.93484,43.24167,43.24167,0,0,1,.43487-5.72934,21.72455,21.72455,0,0,0,.13132-7.87506,6.331,6.331,0,0,0-2.53172-4.08988,8.70092,8.70092,0,0,0-3.62835-1.09811,56.29316,56.29316,0,0,0-8.95465-.49971,16.01883,16.01883,0,0,0-4.54741.54245c-2.18729.89175-4.3682,4.55486-4.87931,6.89687-.39808,1.82368-.82083,3.64484-1.12725,5.48481a8.50541,8.50541,0,0,1-.65189,3.03289c-.63092,1.06285-1.95464,1.0966-2.8178,1.87668-2.81862,2.54737-5.62163,5.12457-8.3118,7.8075a7.7684,7.7684,0,0,1-5.07373,2.37212c-3.50093.32158-6.99508.71742-10.48984,1.10238-1.28981.14208-2.57324.3413-4.17769.55727,0-2.02544-.00452-3.88948.00062-5.75349A155.41785,155.41785,0,0,0,146.90834,114.59c-2.40759-9.94014-4.56241-19.91114-8.51773-29.38453-.25113-.60139-.63257-1.147-.91433-1.73729a2.61427,2.61427,0,0,0-1.28672-1.311c.01192-.05883.029-.11907.03884-.17734.41781-2.46961-2.34512-10.58854-1.13855-13.0687.4544-.88711,4.23154-.81353,5.11915-1.13236,3.16183-1.0465,7.65992,2.5346,10.914,1.85248a7.31393,7.31393,0,0,0,5.64239-5.18751c.86439-2.41186.18887-3.60222.80315-6.08185.54564-2.32074.28669-5.97683.6299-7.66045.01335-.06279,3.62958-2.02637,3.95285-2.24188a10.519,10.519,0,0,0,3.05394-3.11841,3.821,3.821,0,0,0,.65764-1.66808,4.24374,4.24374,0,0,0-.26223-1.61031c-.5888-1.88692-2.96064-4.612-4.5248-6.34845-.04213-.26774-.75979-.53881-.78219-.79986a17.462,17.462,0,0,1,.21332-2.53407c.08447-1.25034.24107-7.00445-2.07733-7.06723a17.5335,17.5335,0,0,0-2.76622.1883,44.02555,44.02555,0,0,0-3.67623-7.58547c.091-.04555.4322-.34162.81877-.56881,4.90109-2.88007,10.12156-5.89393,14.051-10.07856a5.6091,5.6091,0,0,0,1.75818-4.10339.93642.93642,0,0,0-.37363-.78306.9491.9491,0,0,0-.53331-.07345c-2.81636.21189-5.04721,2.84933-7.09187,4.53534l-7.93305,6.542c-1.87428,1.54549-3.46434-.73251-4.77655-2.00847a16.49863,16.49863,0,0,1-1.35742-1.22036c-6.34031-7.48662-15.86978-11.62544-25.2406-9.678C113.71538,2.05678,104.50363,7.2254,99.79757,13.39c-2.7206,3.56279-6.159,10.7789-5.63807,17.22178.39006,4.83145,1.11655,9.16967,4.02725,13.04574,4.66146,6.209,12.10949,19.70247,8.28,28.20949-.08961.20235-.18681.40121-.28772.59858-1.0958-.92347-2.31142-.93488-3.64109.18823-1.10937.93724-2.242,1.8479-3.37968,2.75111C95.30113,78.4675,91.226,81.29349,87.6221,84.629a95.79859,95.79859,0,0,0-16.37679,19.94649c-2.62174,4.2285-4.63,8.56687-5.14771,13.53186a9.00356,9.00356,0,0,0,.06535,1.65518,7.90643,7.90643,0,0,1,.20572,2.37867c-1.22774,4.91237-2.60139,9.788-3.84948,14.69545-2.9929,11.76847-6.22152,23.48652-8.833,35.33992a188.74163,188.74163,0,0,0-4.0402,37.307,184.66271,184.66271,0,0,1-1.64061,21.88358c-1.00867,7.33425-1.9193,14.69558-.2197,22.10955.31259,1.364.76575,1.682,1.79907,1.61364,1.18253,2.75677,3.64746,2.90278,5.985,3.36457a21.56119,21.56119,0,0,0,.76369,2.63387c.3989.94208,2.17063,2.0089,2.98488.96951a2.89329,2.89329,0,0,0,.45645-1.43274c.2908-2.16863-.09248-4.33172.28134-6.48766a25.15345,25.15345,0,0,1,2.18441-6.11409c.72917.72017,2.50542,3.30967,3.19225,3.8614a3.92637,3.92637,0,0,0,4.47692.42027c1.38372-.99615,1.24973-2.39521.89193-3.82376-.04563-.182-.07276-.36962-.13174-.54693a23.88479,23.88479,0,0,1-.8722-9.326,21.48655,21.48655,0,0,0,.05035-4.49323,26.10369,26.10369,0,0,0-1.34611-5.09759c-1.59438-4.42474-3.23274-8.83042-2.76273-13.6583A67.3914,67.3914,0,0,1,66.7649,206.7c1.61534-6.9827,3.36694-13.941,5.32261-20.83575A118.69262,118.69262,0,0,0,75.61639,167.944c.37691-3.0516.52714-6.29353,1.71953-9.04176,1.564-3.60516,4.05561-6.80788,6.14816-10.18371l.657.13644c0,2.0454-.1566,4.10509.02816,6.13366.66093,7.25734,1.134,14.52.29738,21.782-.56716,4.92287-1.11356,9.85877-2.12612,14.71456a61.82414,61.82414,0,0,1-1.94126,7.23687c-.761,2.24452-2.19825,4.48991-2.55959,6.83085a5.22678,5.22678,0,0,0-.062.603,2.86287,2.86287,0,0,0,.61558,1.99651c.63587.72635,1.70988.96786,2.30106,1.731a1.98641,1.98641,0,0,1,.36193,1.62924,4.20462,4.20462,0,0,1-1.00963,1.66113c-3.24447,3.91511-5.29552,8.61289-7.35035,13.21854a18.381,18.381,0,0,0-1.43305,5.50582,48.08841,48.08841,0,0,0,4.57926,26.63409l.10769.48512a63.44041,63.44041,0,0,1-.15989,7.21374A175.80019,175.80019,0,0,1,68.21357,298.63c-3.45716,10.46621-7.68992,20.68179-11.46583,31.03409a197.319,197.319,0,0,1-12.87812,27.46129c-7.91763,14.31111-15.9263,28.59942-23.66184,43.00163-4.50713,8.392-14.42544,22.56594-6.04129,31.61785a9.61072,9.61072,0,0,0,3.71158,2.13581,51.04065,51.04065,0,0,0,12.46709,3.50555c1.64637.18609,3.30487.22771,4.96255.26881a5.604,5.604,0,0,0,4.27119-1.79475,73.461,73.461,0,0,0,7.00577-8.93246c2.00088-3.00173,3.52066-6.31123,5.6804-9.19079,5.39248-7.69043,11.12591-15.15315,16.564-22.82031,6.80231-9.60125,13.33231-19.40756,20.22586-28.94053,10.39818-14.42492,19.3625-29.532,24.18509-46.82377.81979-3.00349,1.79742-5.96135,2.73066-9.10083.40979.546.79657,1.001,1.0921,1.47862a237.8617,237.8617,0,0,1,24.43828,51.90861c6.20693,18.94484,11.14378,38.33461,18.73156,56.80507,3.48614,8.48536,9.68629,15.39315,14.3422,23.28134,4.67257,7.9166,11.056,3.14457,15.952-1.51418a20.02646,20.02646,0,0,1,7.83214-4.57653c3.10716-.967,6.46012-.67152,9.46515-2.013a3.53269,3.53269,0,0,0,1.12868-.71987C210.43927,433.16747,210.27938,429.90966,209.75491,428.04329Zm-4.27622-267.9304c-.066.30328-.054.51006-.19462.59375a.52418.52418,0,0,1-.32307.03368.11388.11388,0,0,1-.12434-.13366q-.08014-1.24766-.12331-2.49728.33695.13972.67368.27948a.71455.71455,0,0,1,.28135.17219C205.90821,158.8413,205.54815,159.793,205.47869,160.11289Zm.51255-3.66416c-.73081-1.114-1.16239-3.35039.976-3.6497C206.59915,154.17582,206.2952,155.31226,205.99124,156.44873Zm.796-7.93656c.28854.108.30765.76908.04274,1.47643s-.71354,1.19322-1.00208,1.08517-.30766-.76906-.04275-1.47644S206.49865,148.40412,206.7872,148.51217Zm-22.09213-10.02639a6.69718,6.69718,0,0,1,.32368-.91569c.38308-.83341.92707-1.16547,2.23661-1.36346a46.33242,46.33242,0,0,1,16.27033.31637,4.75374,4.75374,0,0,1,2.29436.9467c1.56745,1.42136.12906,6.69759-.03946,8.5913a1.10427,1.10427,0,0,1-.239.64272c-1.47642,1.49339-1.78839,3.3712-1.94725,5.36093-.21743,2.72409-.78753,5.434-.82452,8.15516a34.28372,34.28372,0,0,1-1.70289,10.70856,10.29965,10.29965,0,0,1-2.49062,4.25329c-2.03459,1.81106-10.47854.74308-15.16282-.53208-1.26576-.34457-1.59314-1.35624-1.54094-2.68121.19606-4.96722.58283-9.93087.62949-14.89843.02445-2.60969.66812-4.70855,2.70929-6.38148a5.11165,5.11165,0,0,0,1.18931-1.722c1.25507-2.561.53844-4.21805-2.44583-5.431A38.46826,38.46826,0,0,1,184.69507,138.48578ZM150.93221,168.511c.03083-2.62678.121-5.25358.105-7.87987-.00534-.89766.29306-1.22383,1.17266-1.32058,4.845-.53295,9.68238-1.13354,14.52675-1.67319a8.16483,8.16483,0,0,0,4.93028-2.43506c2.928-2.83948,5.89352-5.64549,8.95918-8.33367a6.38509,6.38509,0,0,1,3.01221-1.23732,1.12184,1.12184,0,0,1,1.30358,1.59715,10.56461,10.56461,0,0,1-1.51115,2.63852c-1.37036,1.8869-2.85027,3.69468-4.19906,5.596a1.96351,1.96351,0,0,0-.29,1.63528c.15208.32491.98113.33319,1.59459.50633-.23552,4.5946-.47947,9.35659-.73574,14.35731-2.63161-.58369-5.27061-.97923-7.78857-1.76349-7.24786-2.25742-13.86109-.36592-20.32882,2.79763-.19956.09757-.39849.196-.75444.371C150.92872,171.64987,150.91371,170.08024,150.93221,168.511Zm5.22447-141.04207a2.75286,2.75286,0,0,1,3.15278-.21554c.962.78265.531,2.93955.62436,4.00937a7.6066,7.6066,0,0,1,.01109,2.35409,3.47806,3.47806,0,0,1-.21558.56437C156.4111,30.17627,155.669,28.17159,156.15668,27.46894Zm-.699,1.83914c.03124.08334.07563.16164.1079.245-.03782.42326-.10666.87207-.14551,1.32868a36.81233,36.81233,0,0,1-1.92751,8.11762,3.526,3.526,0,0,1-2.83281,2.2552c-.04007.00224-.07788.00224-.11344.00224-1.28652,0-1.8486-1.5131-2.03746-2.01969a22.74248,22.74248,0,0,1-.77089-2.824l-.05343-.23773c-.07995-.35772-.13543-.72878-.18887-1.0976a11.14768,11.14768,0,0,0-.24-1.29091,5.43566,5.43566,0,0,1,.931-4.386c.98893-1.33812,4.62283-2.39074,6.0791-2.03633a1.91265,1.91265,0,0,1,.8089.39438A11.23973,11.23973,0,0,0,155.45772,29.30808ZM138.5205,32.92641c.62764-4.05048,1.09087-5.6019,4.27489-8.3898.88207-.77211,7.21662-6.95559,8.59973-6.06795.14119.09109,1.922,3.80108,2.73848,5.3925a8.11409,8.11409,0,0,1,.53,1.79694c-1.80873.30329-3.68405.71211-4.54392.91431a5.61843,5.61843,0,0,0-1.85969.93485,7.388,7.388,0,0,0-2.20619,2.12522c-.64552,1.06706-.81672,1.6203-2.07426,2.15577a23.66222,23.66222,0,0,1-5.52565,1.47256C138.47261,33.14916,138.50385,33.03751,138.5205,32.92641ZM109.95673,61.90618A40.73843,40.73843,0,0,0,116.59278,56.12c2.57283-3.08675,5.61238-11.83483,6.22563-13.42736-.09988.25941,1.13321,1.47256,1.33091,1.6753a8.76239,8.76239,0,0,0,1.56088,1.27146,12.426,12.426,0,0,0,4.39039,1.57642q.45007.0825.90221.14165a1.05988,1.05988,0,0,0,.40774-.0011c1.08861-.28775-1.27542-1.18037-1.51649-1.26592a7.98649,7.98649,0,0,1-2.37738-1.06484,6.9291,6.9291,0,0,1-2.43082-5.84407,7.61132,7.61132,0,0,1,1.4499-4.1316,1.9023,1.9023,0,0,1,1.16074-.6521,3.85893,3.85893,0,0,1,4.03177,2.58681c.42316,1.132.53537,2.363.97763,3.48723.46426,1.17927,1.77749,2.794,2.9294,1.89081.61551-.481.91762-2.42239,1.1443-3.13393.49221-1.54367,1.04771-3.15007,1.431-4.75984,2.93844-.24607,5.709-.57045,6.18227-.6982a1.12975,1.12975,0,0,1,.75547-.03278c.31444.14442.41226.53546.47207.87651.37444,2.14413.58119,4.37321,1.60876,6.32958a3.97485,3.97485,0,0,0,3.235,1.86193,3.909,3.909,0,0,0,2.92281-1.21092c1.42545-1.51366,1.83648-4.306,2.19633-6.29068.20675-1.13983.349-2.32187.4844-3.46391a3.77818,3.77818,0,0,1,.10892-.80764,13.67692,13.67692,0,0,0,1.5354,2.2663,14.84843,14.84843,0,0,0,2.00622,2.47406c1.1143,1.06705,2.37081,1.98637,3.40393,3.13175,2.78636,3.09062.46446,6.35734-2.50295,8.00153a18.66911,18.66911,0,0,0-3.8949,2.44518c-.99.92984-.21,2.8412-.22771,4.06825-.05447,3.75607-1.23432,2.79565-1.38311,4.50874-.08344.95651.63421,2.56736.671,3.50943a7.0077,7.0077,0,0,1-1.46531,4.10715,4.79125,4.79125,0,0,1-3.2985,2.26075,7.11427,7.11427,0,0,1-2.36835-.34272c-3.50072-.87651-13.44924-2.707-15.42443,1.90836-.78589,1.83739,1.75139,8.91033,1.45319,12.46683-.12126-.0048-.24374-.0074-.36787-.00619-2.11063.02063-4.22146.05651-6.33106.12246-6.27352.19609-11.91077-1.87372-17.17378-5.02494a13.87818,13.87818,0,0,1-3.53422-3.23264C108.46758,71.11054,110.96149,64.482,109.95673,61.90618ZM103.832,74.07251a1.39863,1.39863,0,0,1,1.32967.14755c2.89837,4.01161,7.16751,5.8638,11.55831,7.61951,5.3409,2.13555,10.898,2.10166,16.48633,1.95575,2.32971-.06083,3.13573.59306,3.56772,3.00908-7.65436,1.536-14.95114.20051-22.066-2.21567A23.937,23.937,0,0,1,103.68918,76.639C103.013,75.79371,102.56871,74.79514,103.832,74.07251Zm-35.6207,43.03623a17.596,17.596,0,0,1,9.83117,1.46619c5.11154,2.43832,10.05148,5.24,15.0282,7.95354a24.27676,24.27676,0,0,1,2.83918,2.11327q-.12577.279-.25176.55805a12.74722,12.74722,0,0,1-2.3706-.73833c-3.758-2.0164-7.51092-4.04626-11.20523-6.17636-4.11727-2.37408-8.44211-3.81-13.25647-3.4354a5.8949,5.8949,0,0,1-.901-.10039C68.03477,118.11969,68.12129,117.62471,68.21131,117.10874Zm16.16552,25.78984a79.87192,79.87192,0,0,1-5.34028,9.17283,25.82718,25.82718,0,0,0-5.2367,14.136c-.44021,8.44148-2.6275,16.56837-5.17032,24.58252a114.22071,114.22071,0,0,0-4.83677,24.2325c-.48214,5.26792,1.206,10.07646,3.02167,14.88011a18.4776,18.4776,0,0,1,1.13033,4.42944,26.21479,26.21479,0,0,1-.07234,4.77766,36.71132,36.71132,0,0,0,.90611,9.56226,3.75341,3.75341,0,0,1,.01438,1.8133.40693.40693,0,0,1-.17921.2591.4305.4305,0,0,1-.23181.02132,5.34134,5.34134,0,0,1-3.66082-2.11034,7.40813,7.40813,0,0,1-1.08-4.93773c.04624-1.28151-.60873-5.93506-.60873-5.93506-1.32516-.184-1.05,1.12228-1.23494,1.90883-.507,2.15641-1.21129,5.76025-1.355,6.20665a42.68631,42.68631,0,0,0-1.80832,8.41724c-.22318,2.03818.02291,5.64372-.0857,6.13515s-.51125.848-1.2152-.0398-.87631-6.14447-.58058-9.11232a42.47979,42.47979,0,0,1,1.91375-8.74357c.22586-.70352.635-4.29257.635-4.29257-1.163-.51543-4.04493,9.98025-4.129,14.47142a24.50163,24.50163,0,0,1-.14407,3.13054,4.37725,4.37725,0,0,1-1.11388-.13466A69.63207,69.63207,0,0,1,55.468,242.99961c.16482-.83239,1.06538-4.55406.11817-4.79595,0,0-2.31409,7.885-2.61455,11.14794-.18784,2.04-.03494,4.11134-.03494,6.23766a1.53316,1.53316,0,0,1-1.717-1.68708c.20126-2.9506.185-5.90968.20455-8.86541.00838-1.26589.00136-2.52168-.04316-3.78657-.01953-.55488.06038-1.94049-.1158-1.94058s-1.13222,7.87669-1.49947,11.13874a1.63643,1.63643,0,0,1-.44926,1.09251,27.59841,27.59841,0,0,1-.46672-4.36735c.25073-5.15.37034-10.3299,1.05264-15.42983a203.9742,203.9742,0,0,0,1.69015-23.2892,191.38108,191.38108,0,0,1,3.77344-35.08136c1.76742-8.58128,4.08706-17.05151,6.25954-25.54594,1.9863-7.76673,4.1109-15.49814,6.16008-23.24889.32266-1.2205.56927-2.46108.87056-3.77763a14.5843,14.5843,0,0,1,7.98956.94264c4.68756,2.23966,9.21586,4.81293,13.99837,7.34735-1.11162,2.49522-2.14413,4.83788-3.19759,7.171C86.44327,138.4837,85.52545,140.75342,84.37683,142.89858Zm33.15207,70.12117a9.37265,9.37265,0,0,0-1.82209-.15126,42.46184,42.46184,0,0,1-12.49648-1.671c-2.24606-.61649-4.62-.75716-6.92767-1.16-3.09175-.53968-6.17117-1.15152-9.26436-1.68167-1.62233-.27806-3.25616-.491-4.889-.70581l-.006-.02186c-.02507.00408-.05015.00706-.07543.01112q-.29594-.039-.59167-.078c-1.69816-.22537-2.02575-.67891-1.60691-2.32713a3.50335,3.50335,0,0,1,.23141-.66325c4.08417-8.4355,5.05934-17.59882,6.20425-26.71193.95934-7.63366.51831-15.26316-.22318-22.89276-.30355-3.12438-.34773-6.27434-.48851-9.41364a2.17849,2.17849,0,0,1,.19442-.951c2.14495-4.78676,4.3049-9.56676,6.49629-14.42531,3.48572,1.33384,4.82239.70913,7.207-1.97365,3.4997-3.937,4.55393-8.67862,6.95043-13.23076a46.43331,46.43331,0,0,0,2.24283-5.58635,78.85792,78.85792,0,0,0-4.814,8.39858,34.97261,34.97261,0,0,1-6.135,9.36375c-3.47421-1.96892-6.83766-3.88768-10.214-5.78347-1.75674-.98631-3.5332-1.93774-5.306-2.895a25.65243,25.65243,0,0,0-13.55858-3.36344,21.18964,21.18964,0,0,1,3.41914-8.20049c1.90388-2.95755,3.81166-5.915,5.81234-8.807a51.74374,51.74374,0,0,1,3.28268-4.0303,110.73268,110.73268,0,0,1,18.541-16.75147c.44679-.33239.91577-.63527,1.36091-.94231a28.78171,28.78171,0,0,0,16.35768,10.97933c6.56144,1.65857,13.07521,2.65113,20.04706,1.10931,1.17965,3.11888,2.831,6.38909,3.64911,9.856,2.4004,10.1704,4.75631,20.38716,6.70664,30.6523a72.21036,72.21036,0,0,1,.96921,12.89595c.088,12.10276.11138,24.20992-.12434,36.30981a90.58669,90.58669,0,0,1-5.2,27.1459,25.65248,25.65248,0,0,1-2.63521,6.15157,7.45534,7.45534,0,0,1-5.7548,2.96862C129.1506,214.8853,123.38974,214.01906,117.5289,213.01975Z"/></svg>